<svg width="85" height="106" viewBox="0 0 85 106" fill="none" xmlns="http://www.w3.org/2000/svg">
<path d="M28.5 62C18.6389 62.405 8.95432 64.7497 0 68.9L24.2 3.2C24.9 1.2 26.1 0 27.6 0H56.6C58.1 0 59.3 1.2 60 3.2L84.2 68.9C84.2 68.9 72.6 61.9 55.7 61.9L45.1 29C44.7 27.3 43.5 26.2 42.2 26.2C40.9 26.2 39.7 27.3 39.3 28.9L28.5 62Z" fill="black"/>
<path d="M23.2 70C21.2 76.6 22.6 85.8 27.4 90.2C27.4618 89.9653 27.5285 89.7319 27.6 89.5C27.8411 88.1854 28.5527 87.0036 29.6017 86.1755C30.6507 85.3473 31.9654 84.9295 33.3 85C36.1 85.1 37.6 86.5 38 89.7C38.2 90.8 38.2 92 38.2 93.2V93.6C38.2 96.3 38.9 98.8 40.4 101C41.776 103.159 43.7589 104.864 46.1 105.9V105.6L45.9 105.3C44.1 99.7 45.4 95.8 50.3 92.5L51.8 91.5C52.886 90.7952 53.953 90.0616 55 89.3C56.8832 87.9971 58.4649 86.3051 59.638 84.3384C60.8111 82.3717 61.5484 80.1761 61.8 77.9C62.1 75.9 61.9 73.9 61.2 71.9L60.4 72.5L58.8 73.5C51.7965 76.7101 43.9657 77.654 36.4 76.2C31.4 75.5 26.7 74.2 23.2 70Z" fill="#FF7E33"/>
</svg>
