<svg width="48" height="13" viewBox="0 0 48 13" fill="none" xmlns="http://www.w3.org/2000/svg">
<path d="M0.64 9.328C0.746667 9.40267 0.970667 9.50933 1.312 9.648C1.664 9.776 2.07467 9.84 2.544 9.84C2.91733 9.84 3.22133 9.776 3.456 9.648C3.70133 9.52 3.88267 9.328 4 9.072C4.128 8.80533 4.21333 8.464 4.256 8.048C4.29867 7.62133 4.32 7.10933 4.32 6.512V0.639999H6.944V6.416C6.944 7.26933 6.896 8.048 6.8 8.752C6.704 9.456 6.50667 10.0693 6.208 10.592C5.92 11.104 5.48267 11.4987 4.896 11.776C4.30933 12.0427 3.52533 12.176 2.544 12.176C2.04267 12.176 1.58933 12.1173 1.184 12C0.778667 11.8827 0.405333 11.7067 0.064 11.472L0.64 9.328ZM15.8103 3.968C15.7783 3.91467 15.6663 3.83467 15.4743 3.728C15.2823 3.61067 15.0423 3.488 14.7543 3.36C14.4663 3.232 14.1516 3.12 13.8103 3.024C13.4689 2.928 13.1276 2.88 12.7863 2.88C12.3383 2.88 11.9916 2.96 11.7463 3.12C11.5009 3.26933 11.3783 3.504 11.3783 3.824C11.3783 4.08 11.4689 4.28267 11.6503 4.432C11.8423 4.58133 12.1143 4.71467 12.4663 4.832C12.8183 4.93867 13.2503 5.06667 13.7623 5.216C14.4876 5.408 15.1169 5.64267 15.6503 5.92C16.1836 6.18667 16.5889 6.53333 16.8663 6.96C17.1543 7.38667 17.2983 7.952 17.2983 8.656C17.2983 9.296 17.1809 9.84 16.9462 10.288C16.7116 10.7253 16.3916 11.0827 15.9862 11.36C15.5916 11.6267 15.1383 11.824 14.6263 11.952C14.1143 12.0693 13.5863 12.128 13.0423 12.128C12.4876 12.128 11.9169 12.0747 11.3303 11.968C10.7543 11.8507 10.1996 11.6907 9.66625 11.488C9.13292 11.2747 8.64225 11.0187 8.19425 10.72L9.34625 8.432C9.38892 8.48533 9.52758 8.58667 9.76225 8.736C9.99692 8.87467 10.2849 9.024 10.6263 9.184C10.9783 9.33333 11.3676 9.46667 11.7943 9.584C12.2209 9.70133 12.6529 9.76 13.0903 9.76C13.5596 9.76 13.9063 9.68533 14.1303 9.536C14.3649 9.38667 14.4823 9.17867 14.4823 8.912C14.4823 8.624 14.3596 8.4 14.1143 8.24C13.8796 8.08 13.5543 7.936 13.1383 7.808C12.7329 7.68 12.2636 7.536 11.7303 7.376C11.0369 7.16267 10.4609 6.92267 10.0023 6.656C9.55425 6.38933 9.21825 6.064 8.99425 5.68C8.78092 5.296 8.67425 4.816 8.67425 4.24C8.67425 3.44 8.86092 2.768 9.23425 2.224C9.61825 1.66933 10.1303 1.25333 10.7703 0.976C11.4103 0.688 12.1089 0.544 12.8663 0.544C13.3996 0.544 13.9116 0.607999 14.4023 0.735999C14.9036 0.863999 15.3676 1.024 15.7943 1.216C16.2316 1.408 16.6209 1.6 16.9623 1.792L15.8103 3.968Z" fill="#F7DF1E"/>
<path d="M18.838 12V0.639999H23.078C24.326 0.639999 25.366 0.895999 26.198 1.408C27.0407 1.90933 27.6753 2.592 28.102 3.456C28.5287 4.30933 28.742 5.25867 28.742 6.304C28.742 7.456 28.5073 8.45867 28.038 9.312C27.5687 10.1653 26.9073 10.8267 26.054 11.296C25.2113 11.7653 24.2193 12 23.078 12H18.838ZM26.07 6.304C26.07 5.64267 25.9527 5.06133 25.718 4.56C25.4833 4.048 25.142 3.65333 24.694 3.376C24.246 3.088 23.7073 2.944 23.078 2.944H21.462V9.696H23.078C23.718 9.696 24.2567 9.552 24.694 9.264C25.142 8.96533 25.4833 8.56 25.718 8.048C25.9527 7.52533 26.07 6.944 26.07 6.304ZM34.0831 12.16C33.3685 12.16 32.7285 12.0427 32.1631 11.808C31.6085 11.5733 31.1391 11.2533 30.7551 10.848C30.3711 10.4427 30.0778 9.97867 29.8751 9.456C29.6831 8.93333 29.5871 8.384 29.5871 7.808C29.5871 7.22133 29.6831 6.66667 29.8751 6.144C30.0778 5.62133 30.3711 5.15733 30.7551 4.752C31.1391 4.34667 31.6085 4.02667 32.1631 3.792C32.7285 3.55733 33.3685 3.44 34.0831 3.44C34.7978 3.44 35.4325 3.55733 35.9871 3.792C36.5418 4.02667 37.0111 4.34667 37.3951 4.752C37.7791 5.15733 38.0725 5.62133 38.2751 6.144C38.4778 6.66667 38.5791 7.22133 38.5791 7.808C38.5791 8.384 38.4778 8.93333 38.2751 9.456C38.0725 9.97867 37.7791 10.4427 37.3951 10.848C37.0111 11.2533 36.5418 11.5733 35.9871 11.808C35.4325 12.0427 34.7978 12.16 34.0831 12.16ZM32.2111 7.808C32.2111 8.24533 32.2911 8.62933 32.4511 8.96C32.6218 9.29067 32.8458 9.54667 33.1231 9.728C33.4005 9.90933 33.7205 10 34.0831 10C34.4351 10 34.7498 9.90933 35.0271 9.728C35.3151 9.536 35.5391 9.27467 35.6991 8.944C35.8591 8.61333 35.9391 8.23467 35.9391 7.808C35.9391 7.37067 35.8591 6.98667 35.6991 6.656C35.5391 6.32533 35.3151 6.06933 35.0271 5.888C34.7498 5.70667 34.4351 5.616 34.0831 5.616C33.7205 5.616 33.4005 5.70667 33.1231 5.888C32.8458 6.06933 32.6218 6.32533 32.4511 6.656C32.2911 6.98667 32.2111 7.37067 32.2111 7.808ZM43.8648 12.16C43.1501 12.16 42.5154 12.0427 41.9608 11.808C41.4061 11.5733 40.9314 11.2533 40.5368 10.848C40.1528 10.4427 39.8594 9.97867 39.6568 9.456C39.4541 8.93333 39.3528 8.37867 39.3528 7.792C39.3528 7.024 39.5288 6.30933 39.8808 5.648C40.2434 4.98667 40.7608 4.45333 41.4328 4.048C42.1048 3.64267 42.9154 3.44 43.8648 3.44C44.8248 3.44 45.6354 3.648 46.2968 4.064C46.9688 4.46933 47.4701 5.00267 47.8008 5.664L45.3048 6.416C45.1448 6.16 44.9368 5.96267 44.6808 5.824C44.4354 5.68533 44.1581 5.616 43.8488 5.616C43.4968 5.616 43.1768 5.70667 42.8888 5.888C42.6114 6.06933 42.3874 6.32 42.2168 6.64C42.0568 6.96 41.9768 7.344 41.9768 7.792C41.9768 8.22933 42.0621 8.61333 42.2328 8.944C42.4034 9.27467 42.6274 9.536 42.9048 9.728C43.1821 9.90933 43.4968 10 43.8488 10C44.0621 10 44.2594 9.968 44.4408 9.904C44.6328 9.82933 44.8034 9.728 44.9528 9.6C45.1128 9.472 45.2354 9.328 45.3208 9.168L47.8168 9.936C47.6141 10.3627 47.3208 10.7467 46.9368 11.088C46.5634 11.4187 46.1208 11.68 45.6088 11.872C45.0968 12.064 44.5154 12.16 43.8648 12.16Z" fill="black"/>
</svg>
